<?xml version="1.0" standalone="no"?>
<!DOCTYPE svg PUBLIC "-//W3C//DTD SVG 20010904//EN"
 "http://www.w3.org/TR/2001/REC-SVG-20010904/DTD/svg10.dtd">
<svg version="1.0" xmlns="http://www.w3.org/2000/svg"
 width="960.000000pt" height="678.000000pt" viewBox="0 0 960.000000 678.000000"
 preserveAspectRatio="xMidYMid meet">

<g transform="translate(0.000000,678.000000) scale(0.100000,-0.100000)"
fill="#000000" stroke="none">
<path d="M6385 6164 c-25 -12 -37 -33 -73 -125 -24 -60 -40 -114 -37 -119 3
-6 20 -10 37 -10 38 0 43 22 -76 -324 -53 -153 -96 -287 -96 -297 0 -27 39
-35 62 -12 11 11 51 114 90 229 39 115 74 211 78 214 4 3 9 30 12 60 6 63 33
134 48 125 6 -4 10 -116 10 -315 0 -296 1 -310 19 -320 50 -26 51 -22 51 152
0 93 5 175 11 192 10 27 5 48 -33 164 l-45 133 35 -3 36 -3 97 -304 c53 -167
103 -310 111 -317 17 -18 78 -30 78 -16 0 6 -45 150 -101 321 -55 171 -98 315
-95 320 3 5 -19 61 -49 124 -43 91 -61 120 -84 132 -37 19 -48 19 -86 -1z"/>
<path d="M4005 5244 c-22 -8 -52 -26 -67 -41 -51 -49 -55 -70 -62 -333 -7
-275 -65 -2073 -68 -2134 -3 -44 2 -40 -138 -101 -139 -60 -134 -57 -140 -100
l-5 -37 -27 21 c-31 25 -51 27 -69 5 -18 -22 -103 -9 -150 22 -20 14 -71 40
-114 59 -43 18 -94 48 -114 67 -39 35 -74 58 -92 58 -21 0 -130 126 -171 198
-46 81 -166 203 -238 244 -41 24 -57 26 -202 31 -87 3 -160 1 -163 -3 -15 -24
125 -403 190 -515 49 -85 123 -228 256 -495 31 -64 74 -163 94 -220 41 -120
116 -383 109 -389 -3 -3 -53 98 -109 224 -7 17 -46 100 -85 185 -39 85 -93
218 -120 295 -27 77 -62 172 -78 210 -58 138 -203 411 -242 455 -37 43 -39 48
-30 80 6 21 8 78 4 141 l-7 106 47 38 c40 32 58 60 117 184 85 176 99 238 99
434 0 124 3 146 20 175 11 18 20 42 20 53 0 11 5 29 11 41 15 27 -3 69 -42 97
-17 12 -29 30 -28 39 4 40 -3 62 -31 103 -18 27 -30 57 -30 78 0 46 -40 190
-60 221 -10 14 -27 45 -40 69 -12 25 -45 69 -73 98 -47 50 -49 54 -24 48 33
-9 33 -4 5 40 -32 49 -112 86 -273 127 -83 21 -197 -8 -279 -71 -28 -21 -78
-52 -111 -69 -33 -16 -69 -40 -80 -52 -10 -11 -41 -30 -67 -42 -57 -24 -120
-102 -138 -169 -6 -24 -18 -68 -27 -98 -21 -76 -21 -249 0 -330 17 -62 17 -65
-3 -98 -30 -51 -26 -105 16 -203 48 -117 68 -153 113 -210 44 -55 61 -115 61
-210 0 -49 -3 -61 -20 -70 -24 -13 -64 -74 -73 -111 -4 -14 -27 -64 -51 -110
-49 -91 -117 -163 -297 -317 -53 -45 -110 -97 -127 -116 -39 -44 -95 -141
-128 -218 -14 -33 -42 -85 -63 -116 -48 -71 -67 -126 -87 -255 -28 -182 -24
-443 9 -700 11 -82 22 -124 47 -173 25 -51 38 -103 61 -236 66 -387 168 -696
320 -970 30 -53 71 -115 91 -137 l38 -41 1146 0 1146 0 -7 36 c-7 40 -109 397
-125 438 -5 15 -5 28 0 31 11 7 163 -10 271 -31 185 -36 289 -19 289 46 0 16
-4 32 -10 35 -22 14 -8 25 33 25 52 1 153 24 173 40 7 7 14 21 14 30 0 28 11
50 24 50 6 0 28 11 49 25 30 21 37 32 37 59 0 28 -12 46 -69 105 l-68 72 -94
19 c-52 10 -137 23 -190 30 -53 6 -120 18 -150 26 -30 9 -92 26 -139 38 -112
30 -180 56 -180 70 0 18 56 66 148 126 101 67 144 124 140 185 -3 36 -6 40
-31 43 -18 2 -42 -6 -65 -21 -78 -53 -257 -135 -269 -123 -8 8 -36 304 -30
320 4 9 16 16 29 16 49 0 335 76 489 130 63 22 117 40 122 40 4 0 4 -51 1
-113 -8 -126 1 -167 44 -219 57 -67 58 -68 547 -68 242 0 446 -4 453 -8 9 -6
-5 -58 -59 -218 -39 -115 -149 -440 -245 -722 l-173 -512 43 0 43 0 21 67 c11
38 51 156 88 263 36 107 70 209 75 225 4 17 24 75 44 130 19 55 51 147 70 205
61 186 172 506 186 536 l14 29 739 3 c547 1 742 -1 753 -9 11 -10 13 -126 11
-730 l-3 -719 38 0 37 0 0 718 c0 545 3 721 12 730 18 18 1397 17 1422 -1 12
-9 50 -113 106 -288 209 -648 359 -1116 365 -1136 5 -19 13 -23 49 -23 l43 0
-79 248 c-44 136 -146 454 -228 707 -81 253 -151 470 -154 483 l-7 22 434 0
434 0 44 23 c38 20 47 32 66 83 15 41 22 83 22 137 l1 77 -47 1 c-45 2 -46 2
-13 8 l35 6 3 60 c1 33 -18 697 -42 1475 -44 1367 -49 1550 -47 1709 0 83 -13
124 -55 163 -60 56 86 53 -2384 48 -1257 -3 -2289 -2 -2294 3 -17 12 -139 6
-181 -9z m3528 -81 c-611 -2 -1615 -2 -2230 0 -615 1 -115 2 1112 2 1227 0
1730 -1 1118 -2z m1188 -56 c28 -15 54 -40 71 -68 l28 -44 14 -465 c9 -256 18
-537 21 -625 3 -88 10 -306 15 -485 6 -179 19 -615 30 -969 l21 -645 -25 -50
c-15 -31 -40 -61 -62 -76 l-38 -25 -2365 -3 c-1621 -2 -2377 0 -2402 8 -82 23
-128 93 -129 192 0 56 1 58 38 78 20 12 52 32 71 46 19 13 46 27 60 31 37 8
130 61 166 93 51 46 171 121 217 135 23 7 81 30 128 50 47 21 116 50 154 66
107 46 136 66 136 98 0 58 -46 183 -157 426 -30 66 -65 141 -79 166 -13 26
-24 54 -24 63 0 13 46 46 65 46 4 0 42 -74 85 -165 44 -91 85 -168 93 -171 7
-2 29 2 48 10 20 8 60 18 90 21 30 4 74 13 99 20 25 8 70 21 100 30 30 9 101
37 158 62 73 32 106 42 115 35 6 -6 104 -137 217 -291 l205 -280 168 -1 167 0
-2 973 -3 972 -135 0 -135 0 0 -802 c0 -441 -1 -801 -2 -800 0 1 -73 101 -162
222 l-160 220 20 22 c15 15 20 32 18 60 -2 21 3 51 11 66 19 39 4 77 -37 91
-17 6 -42 24 -54 40 -22 28 -24 28 -98 22 l-76 -6 -315 435 -315 435 -175 -3
-175 -2 -3 -650 -2 -651 -33 -18 c-17 -10 -50 -36 -72 -57 -22 -21 -56 -45
-75 -53 -19 -8 -71 -40 -115 -70 -44 -31 -84 -56 -90 -56 -6 0 -32 -13 -58
-30 -26 -16 -49 -30 -50 -30 -1 0 1 100 5 222 25 775 39 1212 49 1573 6 226
15 427 20 447 13 49 54 97 104 119 38 18 129 19 2306 19 l2266 0 44 -23z
m-3852 -1307 c92 -121 105 -142 94 -149 -6 -3 -18 -21 -27 -40 -10 -18 -35
-52 -55 -75 -21 -23 -41 -56 -45 -76 -3 -19 -15 -53 -25 -75 -11 -22 -29 -63
-41 -92 -12 -28 -33 -61 -46 -74 l-24 -22 0 422 0 422 56 -83 c31 -45 82 -116
113 -158z m231 -312 l43 -61 -43 7 c-24 4 -50 12 -57 18 -20 16 -15 98 7 98 4
0 27 -28 50 -62z m-3522 -196 c48 -30 154 -88 237 -129 141 -71 285 -159 300
-184 4 -6 2 -53 -5 -104 -10 -74 -10 -104 0 -144 7 -28 15 -51 19 -51 21 0 51
-44 51 -75 0 -19 9 -69 21 -110 11 -42 19 -80 17 -85 -2 -5 -49 50 -105 123
-57 72 -117 151 -135 174 -123 157 -211 254 -390 427 -111 108 -208 207 -215
219 -13 24 -17 66 -7 91 4 11 20 1 65 -42 33 -31 99 -81 147 -110z m2275
-1509 c-7 -2 -19 -2 -25 0 -7 3 -2 5 12 5 14 0 19 -2 13 -5z"/>
<path d="M7285 4389 c-379 -52 -673 -264 -801 -579 -89 -220 -104 -519 -38
-749 103 -353 408 -606 798 -660 111 -16 326 -13 435 4 344 56 616 260 742
555 88 207 108 512 49 746 -11 44 -40 120 -65 171 -125 255 -349 427 -643 494
-102 23 -366 33 -477 18z m300 -220 c182 -22 309 -81 425 -198 122 -123 178
-255 200 -473 19 -190 -9 -369 -79 -513 -97 -197 -286 -328 -532 -366 -103
-16 -295 -6 -389 21 -246 70 -428 265 -491 525 -29 119 -31 314 -5 430 71 314
310 533 628 574 92 12 142 12 243 0z"/>
</g>
</svg>
